PathFileType	4	(X/Y/Z)	D:\TRACE\spotREDO_2-26-24\spot_justBody_Motion_2_3-v60.trc
DataRate	CameraRate	NumFrames	NumMarkers	Units	OrigDataRate	OrigDataStartFrame	OrigNumFrames
100.00	100.00	      28	9	mm	100.00	1751	      7000
Frame#	Time	front left toe			Front right toe			aft left toe			aft right toe			Arm			FL body			FR body			AL Body			AR Body			
		X1	Y1	Z1	X2	Y2	Z2	X3	Y3	Z3	X4	Y4	Z4	X5	Y5	Z5	X6	Y6	Z6	X7	Y7	Z7	X8	Y8	Z8	X9	Y9	Z9	

1751	17.500	-193.92570	15.24534	-158.19662	276.78650	28.69905	-111.67633	-167.17992	13.80907	328.75421	326.14191	35.34253	386.15436	-21.74317	793.66406	-364.25143	-104.77985	535.63477	-327.86081	50.87428	540.43329	-325.46259	-127.54531	595.83148	553.69788	19.67291	597.29779	557.94910	
1752	17.510	-193.09608	15.70139	-157.78412	278.31857	29.66024	-111.35008	-166.10564	13.04239	328.99454	327.65323	34.94758	386.71082	-21.69990	794.40961	-363.65720	-104.34662	536.18701	-327.28708	51.44806	540.57727	-324.68088	-126.58517	595.16290	554.24951	20.77745	596.34534	558.52692	
1753	17.520	-192.27473	16.05759	-157.65315	278.82990	29.47495	-111.17976	-165.12120	12.33180	329.29443	328.38028	33.52399	386.91904	-21.13216	794.65375	-362.64136	-103.78843	536.63879	-326.76581	51.90990	541.50287	-324.48486	-125.52986	594.38373	555.13330	21.12845	595.79767	559.12091	
1754	17.530	-191.28369	16.56265	-157.06500	279.38672	29.99730	-111.05369	-163.66673	11.46785	329.70319	329.52966	32.66204	387.36996	-20.53787	795.36829	-361.80557	-103.39307	537.07245	-326.29190	52.15054	542.02893	-324.14063	-124.56580	593.63275	555.34601	21.82659	595.01001	559.67902	
1755	17.540	-190.67334	17.29897	-156.84367	281.05603	30.75235	-110.36826	-162.98781	10.77799	330.08014	330.66940	32.17661	387.64996	-19.81639	796.07092	-360.85391	-102.81815	537.76471	-325.67673	52.69740	542.51129	-323.73172	-123.05730	592.95703	556.23029	23.71539	594.34497	560.30829	
1756	17.550	-189.77243	17.64948	-156.58173	281.58820	30.68733	-110.13562	-162.09842	10.22123	330.30280	331.20453	30.75202	387.86636	-19.35943	796.57001	-359.87039	-102.18838	538.28571	-324.99188	53.57914	543.17084	-323.08899	-121.76766	592.15753	556.91052	25.62464	593.30585	561.02844	
1757	17.560	-188.73502	18.13445	-155.80185	282.28143	30.94490	-109.75259	-161.04723	9.64774	330.61148	332.83517	30.28005	388.22067	-18.44070	797.01489	-358.67465	-101.52564	538.91064	-324.53537	54.32972	543.42029	-322.61450	-120.85273	591.27618	557.69733	29.07986	591.90033	561.42053	
1758	17.570	-187.88881	18.52987	-155.55251	283.70340	31.76287	-109.48425	-160.00700	8.66663	330.97949	333.28604	29.31677	388.39438	-17.89839	797.55542	-357.93317	-100.69806	539.14594	-323.62085	55.00931	543.99298	-322.03351	-119.62892	590.50696	558.53271	28.59024	591.46045	562.26599	
1759	17.580	-187.03667	18.80762	-155.27513	284.52188	31.67995	-109.19664	-159.22034	8.04667	331.00665	334.04050	28.22999	388.80865	-16.83623	797.95984	-356.77994	-99.68700	539.36359	-323.12280	56.26640	544.41205	-321.21274	-118.71610	589.64227	559.38135	29.65771	590.70557	562.99530	
1760	17.590	-185.98360	19.21453	-154.96423	285.29807	31.99892	-108.73974	-158.07655	7.32842	331.45755	335.47757	27.59066	389.32837	-15.83177	798.53729	-355.89951	-98.72014	540.01593	-322.38522	56.76985	544.68414	-320.73251	-117.44654	588.93213	560.05707	30.44110	590.03796	563.62128	
1761	17.600	-184.97348	19.53178	-154.21271	286.37262	32.62795	-108.28652	-157.59204	6.74572	331.87985	336.21381	26.90890	389.74979	-14.53011	798.86536	-354.83902	-97.80610	540.47131	-321.59427	57.95601	545.07959	-319.99619	-116.49455	588.24072	560.54901	31.51148	589.23700	564.57068	
1762	17.610	-184.33661	20.28676	-153.86842	287.39050	33.15986	-107.75219	-156.51283	5.95504	332.27850	336.66684	25.76527	389.84958	-13.27644	799.17877	-353.48245	-96.78332	541.00781	-320.97742	59.15243	545.34497	-319.32703	-115.16618	587.30585	561.94775	32.57471	588.48889	565.33923	
1763	17.620	-183.26817	20.49817	-153.71910	287.68048	32.86402	-107.52544	-155.63374	5.31945	332.67661	338.13089	25.24146	390.25818	-12.23285	799.64252	-352.74249	-95.68674	541.22260	-320.08304	60.33760	545.58624	-318.61197	-114.33975	586.77777	562.19403	33.51041	587.59460	566.02087	
1764	17.630	-182.48338	20.96918	-153.44968	288.50977	32.92968	-107.17128	-154.55440	4.34957	332.97717	338.47043	24.18950	390.37762	-10.82847	800.13281	-351.67410	-94.64546	541.54285	-319.48926	61.44316	545.84412	-317.62201	-113.70199	585.92865	562.75195	34.61828	586.73132	566.96082	
1765	17.640	-181.54750	21.27280	-153.02116	289.89474	33.61222	-106.77861	-153.98807	3.60970	333.13300	339.35434	23.33412	390.84058	-9.39269	800.25983	-350.27054	-93.30901	542.00073	-318.75992	62.54882	546.10718	-316.89413	-112.04700	585.19196	563.91534	35.59990	585.98230	567.72644	
1766	17.650	-180.92310	21.92875	-152.72728	290.16861	33.56928	-106.34769	-153.06528	3.21101	333.58871	340.66840	22.78054	391.27890	-8.42194	800.79785	-349.51968	-92.33607	542.30310	-317.86301	63.65948	546.35565	-316.16031	-111.05533	584.66589	564.70471	36.76983	585.14380	568.58557	
1767	17.660	-180.13081	22.43962	-152.35544	291.07913	33.79422	-105.71615	-152.44357	2.81253	334.07877	341.18494	21.91056	391.70874	-6.86287	801.07709	-348.33759	-91.08743	542.74390	-317.13217	64.75266	546.53308	-315.00198	-109.88492	584.02960	565.68134	38.02652	584.38446	569.43201	
1768	17.670	-179.29080	22.70458	-151.82283	292.14169	34.46717	-105.41112	-151.75214	2.30819	334.34027	341.68912	20.74789	391.91699	-5.46521	801.31274	-346.92892	-89.90977	543.04266	-315.99768	66.05109	546.92468	-314.45413	-108.58597	583.26984	566.63068	39.20884	583.48193	570.25439	
1769	17.680	-178.60585	23.07902	-151.46815	292.88699	35.03176	-104.98962	-150.97000	1.25530	334.56833	343.19495	20.42113	392.35849	-4.16692	801.77417	-345.99277	-88.92393	543.37518	-315.55420	66.92622	547.09332	-313.65909	-107.87203	582.39307	567.20203	40.31352	582.44617	571.17810	
1770	17.690	-177.89433	23.51834	-151.18376	293.54623	35.26495	-104.78439	-150.26038	0.67226	334.60416	343.68182	19.34309	392.59595	-2.81831	802.10602	-345.04190	-87.56538	543.66156	-314.61157	68.46024	547.22845	-312.41901	-106.69937	581.48065	567.90399	41.21152	581.66766	572.00787	
1771	17.700	-177.26343	23.88481	-151.11497	294.02533	34.90988	-104.23711	-149.61710	0.08424	334.93469	344.02835	18.39706	392.82901	-1.59399	802.41949	-343.71738	-86.50958	543.99487	-314.14563	69.47144	547.70593	-311.97083	-105.57045	580.62152	569.00232	42.28914	580.69629	572.87201	
1772	17.710	-176.66162	24.51373	-150.79593	294.61966	35.12444	-103.92287	-149.04378	-0.35234	335.24335	344.80420	17.72287	393.22668	0.04565	802.66760	-342.54337	-85.09551	544.32593	-313.05115	70.48573	547.74579	-311.16119	-104.42338	580.01807	569.87939	43.58543	580.01898	573.79358	
1773	17.720	-175.80339	24.76710	-149.97295	295.70370	35.92305	-103.47198	-148.16699	-1.26168	335.69751	345.59818	16.92813	393.72473	1.36137	803.03528	-341.23743	-83.93716	544.76685	-312.22452	72.01877	548.08801	-310.13660	-103.11160	579.33844	570.83301	44.75529	579.06909	574.64490	
1774	17.730	-175.11339	24.99509	-149.71353	296.29114	36.27263	-102.98373	-147.61597	-1.72405	335.73071	346.19147	16.24618	394.15759	2.38961	803.43732	-340.35040	-82.82074	545.08282	-311.40799	73.03069	548.32324	-309.33377	-102.37431	578.55463	571.33643	45.87450	578.13928	575.64349	
1775	17.740	-174.80347	25.47522	-149.57683	296.35040	35.96761	-102.72707	-147.31754	-2.08219	335.95749	346.39731	15.43847	394.25748	4.11792	803.85657	-339.04758	-81.53507	545.54785	-310.50894	74.21935	548.54388	-308.56155	-101.02493	577.81067	572.58813	46.75490	577.39661	576.48425	
1776	17.750	-174.32098	25.87243	-149.33214	296.89252	36.00476	-102.42416	-146.70705	-2.85614	336.37610	346.90533	14.70314	394.47272	5.39240	804.11670	-337.69376	-80.60823	545.80878	-309.67334	75.53553	548.67822	-307.19983	-100.12160	577.07452	573.43756	47.96771	576.29828	577.50305	
1777	17.760	-173.96277	26.36460	-148.99297	297.30441	36.08993	-102.13174	-146.14972	-3.53759	336.59454	347.42352	13.82931	394.82330	6.94168	804.46631	-336.35196	-79.04108	546.22144	-308.68008	76.44096	549.19781	-306.84219	-98.90400	576.23688	574.34625	48.97414	575.40765	578.29968	
1778	17.770	-173.24271	26.60262	-148.47122	298.17239	36.79404	-101.49103	-145.88617	-3.84971	336.76086	348.29727	13.35175	395.34772	8.04479	804.98053	-335.37637	-78.38381	546.79071	-308.02408	77.51703	549.39777	-305.80069	-97.82619	575.41351	575.09064	50.07496	574.47516	579.31927	
